<svg width="512" height="512" viewBox="0 0 512 512" fill="none" xmlns="http://www.w3.org/2000/svg">
<path d="M137.041 96.8382C185.193 132.909 236.985 206.047 256.001 245.296C275.018 206.05 326.808 132.909 374.962 96.8382C409.706 70.8107 466 50.6721 466 114.754C466 127.552 458.646 222.265 454.333 237.641C439.342 291.099 384.712 304.734 336.119 296.482C421.06 310.907 442.668 358.689 396.002 406.47C307.376 497.217 268.62 383.702 258.685 354.615C256.864 349.282 256.013 346.788 256 348.909C255.987 346.788 255.136 349.282 253.315 354.615C243.384 383.702 204.629 497.22 115.998 406.47C69.3316 358.689 90.939 310.904 175.881 296.482C127.286 304.734 72.6561 291.099 57.6665 237.641C53.3534 222.263 46 127.551 46 114.754C46 50.6721 102.296 70.8107 137.038 96.8382H137.041Z" fill="#1185FE"/>
</svg>
